<?xml version="1.0" encoding="UTF-8"?>
<!DOCTYPE svg PUBLIC "-//W3C//DTD SVG 1.1//EN" "http://www.w3.org/Graphics/SVG/1.1/DTD/svg11.dtd">
<svg xmlns="http://www.w3.org/2000/svg" version="1.1" width="1002px" height="214px" style="shape-rendering:geometricPrecision; text-rendering:geometricPrecision; image-rendering:optimizeQuality; fill-rule:evenodd; clip-rule:evenodd" xmlns:xlink="http://www.w3.org/1999/xlink">
<g><path style="opacity:0.752" fill="#20182a" d="M 151.5,-0.5 C 152.833,-0.5 154.167,-0.5 155.5,-0.5C 156.688,0.363622 157.855,1.36362 159,2.5C 159.667,23.8333 159.667,45.1667 159,66.5C 158.167,67.3333 157.333,68.1667 156.5,69C 146.833,69.6667 137.167,69.6667 127.5,69C 126.667,68.1667 125.833,67.3333 125,66.5C 124.5,59.8417 124.334,53.175 124.5,46.5C 112.376,46.2811 109.042,40.7811 114.5,30C 117.536,27.9937 120.869,27.1604 124.5,27.5C 124.334,20.825 124.5,14.1583 125,7.5C 125.903,6.29857 127.069,5.46524 128.5,5C 136.369,3.46436 144.036,1.63102 151.5,-0.5 Z"/></g>
<g><path style="opacity:1" fill="#f9f9f6" d="M 149.5,2.5 C 151.92,2.29245 154.253,2.62578 156.5,3.5C 157.666,23.8251 157.833,44.1585 157,64.5C 156.5,65 156,65.5 155.5,66C 146.167,66.6667 136.833,66.6667 127.5,66C 126.685,58.9133 126.185,51.7466 126,44.5C 122.869,43.7939 119.702,43.1272 116.5,42.5C 113.593,38.3577 113.926,34.5244 117.5,31C 120.426,30.7822 123.26,30.2822 126,29.5C 126.202,22.4504 126.702,15.4504 127.5,8.5C 134.992,6.66293 142.325,4.66293 149.5,2.5 Z"/></g>
<g><path style="opacity:0.773" fill="#180e22" d="M 85.5,25.5 C 87.288,25.2148 88.9547,25.5481 90.5,26.5C 96.078,37.99 101.911,49.3233 108,60.5C 109.878,58.9571 111.378,57.1238 112.5,55C 114.298,53.4947 116.132,53.3281 118,54.5C 119.935,64.1096 121.435,73.7762 122.5,83.5C 118.5,83.5 114.5,83.5 110.5,83.5C 110.657,82.1266 110.49,80.7932 110,79.5C 108.116,81.5763 105.949,81.9097 103.5,80.5C 101.667,76.8333 99.8333,73.1667 98,69.5C 97.6667,72.1667 97.3333,74.8333 97,77.5C 96.4387,78.0219 95.772,78.3552 95,78.5C 90.6772,75.5149 86.3439,72.5149 82,69.5C 82.8236,73.7985 83.4903,78.1318 84,82.5C 80.2564,83.626 76.423,83.7927 72.5,83C 67.0469,68.476 62.7135,53.6427 59.5,38.5C 61.1992,38.3398 62.8659,38.5065 64.5,39C 71.3333,44.5 78.1667,50 85,55.5C 85.4998,45.5056 85.6665,35.5056 85.5,25.5 Z"/></g>
<g><path style="opacity:0.717" fill="#241b2d" d="M 163.5,27.5 C 191.502,27.3334 219.502,27.5 247.5,28C 254.392,30.8068 256.225,35.6402 253,42.5C 251.786,44.0488 250.286,45.2155 248.5,46C 219.833,46.6667 191.167,46.6667 162.5,46C 161.361,40.5838 161.194,35.0838 162,29.5C 162.717,28.9558 163.217,28.2891 163.5,27.5 Z"/></g>
<g><path style="opacity:0.754" fill="#1b1325" d="M 513.5,28.5 C 520.422,28.1878 527.256,28.5212 534,29.5C 534.5,37.1594 534.666,44.8261 534.5,52.5C 526.315,51.9502 518.315,52.7836 510.5,55C 505.916,58.3339 503.583,62.8339 503.5,68.5C 515.588,68.8004 527.588,68.8004 539.5,68.5C 539.334,58.1613 539.5,47.828 540,37.5C 547.747,36.5183 555.58,36.185 563.5,36.5C 563.5,47.1667 563.5,57.8333 563.5,68.5C 573.839,68.3335 584.172,68.5002 594.5,69C 595.833,76.6667 595.833,84.3333 594.5,92C 584.172,92.4998 573.839,92.6665 563.5,92.5C 563.334,100.507 563.5,108.507 564,116.5C 564.9,121.737 567.734,125.571 572.5,128C 580.03,128.99 587.53,129.823 595,130.5C 595.667,137.833 595.667,145.167 595,152.5C 583.674,154.293 572.507,153.46 561.5,150C 549.573,143.651 542.407,133.818 540,120.5C 539.5,111.173 539.334,101.839 539.5,92.5C 527.588,92.1996 515.588,92.1996 503.5,92.5C 503.667,112.503 503.5,132.503 503,152.5C 495.333,153.833 487.667,153.833 480,152.5C 479.5,132.503 479.333,112.503 479.5,92.5C 476.223,92.7839 473.057,92.4505 470,91.5C 469.333,84.1667 469.333,76.8333 470,69.5C 473.057,68.5495 476.223,68.2161 479.5,68.5C 480.464,46.2122 491.797,32.8788 513.5,28.5 Z"/></g>
<g><path style="opacity:1" fill="#f2f2ef" d="M 95.5,60.5 C 94.8333,65.1667 94.1667,69.8333 93.5,74.5C 87.9023,70.9091 82.569,66.9091 77.5,62.5C 77.1667,62.8333 76.8333,63.1667 76.5,63.5C 78.7936,69.3428 80.4603,75.3428 81.5,81.5C 78.8333,81.5 76.1667,81.5 73.5,81.5C 69.81,68.2615 65.81,55.0949 61.5,42C 61.6667,41.5 61.8333,41 62,40.5C 70.2571,46.7124 78.4237,53.0458 86.5,59.5C 87.3324,48.8489 87.8324,38.1822 88,27.5C 94.422,39.3434 100.589,51.3434 106.5,63.5C 107.002,64.521 107.668,64.6877 108.5,64C 111.118,61.2605 113.618,58.4272 116,55.5C 117.61,64.1605 119.11,72.8272 120.5,81.5C 117.833,81.5 115.167,81.5 112.5,81.5C 112.162,79.146 111.662,76.8127 111,74.5C 109.333,76.1667 107.667,77.8333 106,79.5C 102.98,72.7827 99.4795,66.4494 95.5,60.5 Z"/></g>
<g><path style="opacity:1" fill="#fdfefa" d="M 164.5,30.5 C 192.169,30.3334 219.835,30.5 247.5,31C 250.864,31.2973 252.197,33.1307 251.5,36.5C 251.95,39.9414 250.617,42.2747 247.5,43.5C 219.833,43.5 192.167,43.5 164.5,43.5C 164.5,39.1667 164.5,34.8333 164.5,30.5 Z"/></g>
<g><path style="opacity:1" fill="#fbfbf8" d="M 502.5,70.5 C 510.316,71.4924 518.316,71.8257 526.5,71.5C 526.5,77.8333 526.5,84.1667 526.5,90.5C 518.248,90.1842 510.081,90.5175 502,91.5C 501.5,111.164 501.333,130.831 501.5,150.5C 495.167,150.5 488.833,150.5 482.5,150.5C 482.83,130.66 482.497,110.993 481.5,91.5C 478.713,90.5233 475.713,90.19 472.5,90.5C 472.5,84.1667 472.5,77.8333 472.5,71.5C 475.713,71.81 478.713,71.4767 481.5,70.5C 481.27,51.2251 490.27,38.3918 508.5,32C 516.493,31.5003 524.493,31.3336 532.5,31.5C 532.5,37.8333 532.5,44.1667 532.5,50.5C 525.825,50.3337 519.158,50.5004 512.5,51C 503.856,55.0595 500.523,61.5595 502.5,70.5 Z"/></g>
<g><path style="opacity:1" fill="#716d76" d="M 561.5,39.5 C 555.167,39.5 548.833,39.5 542.5,39.5C 542.828,50.0135 542.494,60.3468 541.5,70.5C 541.5,59.8333 541.5,49.1667 541.5,38.5C 548.354,38.176 555.021,38.5093 561.5,39.5 Z"/></g>
<g><path style="opacity:1" fill="#fbfcf8" d="M 561.5,39.5 C 561.172,50.0135 561.506,60.3468 562.5,70.5C 572.319,71.494 582.319,71.8274 592.5,71.5C 592.5,77.8333 592.5,84.1667 592.5,90.5C 582.494,90.3335 572.494,90.5002 562.5,91C 561.349,100.756 561.182,110.589 562,120.5C 564.247,125.712 568.08,129.212 573.5,131C 579.825,131.5 586.158,131.666 592.5,131.5C 592.5,137.833 592.5,144.167 592.5,150.5C 586.5,150.5 580.5,150.5 574.5,150.5C 558.477,148.566 547.977,139.9 543,124.5C 542.667,113.5 542.333,102.5 542,91.5C 538.943,90.5495 535.777,90.2161 532.5,90.5C 532.5,84.1667 532.5,77.8333 532.5,71.5C 535.713,71.81 538.713,71.4767 541.5,70.5C 542.494,60.3468 542.828,50.0135 542.5,39.5C 548.833,39.5 555.167,39.5 561.5,39.5 Z"/></g>
<g><path style="opacity:0.779" fill="#1e1022" d="M 313.5,41.5 C 333.167,41.5 352.833,41.5 372.5,41.5C 372.5,49.8333 372.5,58.1667 372.5,66.5C 354.83,66.3334 337.164,66.5001 319.5,67C 312.819,69.5275 310.986,74.0275 314,80.5C 315.214,82.0488 316.714,83.2155 318.5,84C 330.215,84.1123 341.881,84.779 353.5,86C 372.312,93.4451 379.812,107.278 376,127.5C 371.842,141.992 362.342,150.492 347.5,153C 329.5,153.667 311.5,153.667 293.5,153C 292.167,144.667 292.167,136.333 293.5,128C 310.833,127.667 328.167,127.333 345.5,127C 351.122,124.265 352.622,120.099 350,114.5C 348.048,112.106 345.548,110.606 342.5,110C 331.109,109.91 319.776,109.243 308.5,108C 289.392,98.367 282.892,83.2004 289,62.5C 293.705,51.2838 301.872,44.2838 313.5,41.5 Z"/></g>
<g><path style="opacity:0.8" fill="#190e21" d="M 605.5,41.5 C 631.833,41.5 658.167,41.5 684.5,41.5C 684.5,49.8333 684.5,58.1667 684.5,66.5C 666.5,66.5 648.5,66.5 630.5,66.5C 630.5,72.5 630.5,78.5 630.5,84.5C 641.172,84.3335 651.839,84.5002 662.5,85C 663.833,93 663.833,101 662.5,109C 651.839,109.5 641.172,109.667 630.5,109.5C 630.667,123.837 630.5,138.171 630,152.5C 622,153.833 614,153.833 606,152.5C 605.5,115.502 605.333,78.5015 605.5,41.5 Z"/></g>
<g><path style="opacity:1" fill="#8d8990" d="M 164.5,30.5 C 164.5,34.8333 164.5,39.1667 164.5,43.5C 192.167,43.5 219.833,43.5 247.5,43.5C 219.672,44.498 191.672,44.8313 163.5,44.5C 163.181,39.6367 163.514,34.97 164.5,30.5 Z"/></g>
<g><path style="opacity:1" fill="#c52a1e" d="M 369.5,43.5 C 370.491,50.3134 370.825,57.3134 370.5,64.5C 353.833,64.5 337.167,64.5 320.5,64.5C 336.658,63.5036 352.991,63.1702 369.5,63.5C 369.5,56.8333 369.5,50.1667 369.5,43.5 Z"/></g>
<g><path style="opacity:1" fill="#b2271f" d="M 628.5,64.5 C 645.992,63.5033 663.659,63.1699 681.5,63.5C 681.5,57.1667 681.5,50.8333 681.5,44.5C 657.167,44.5 632.833,44.5 608.5,44.5C 608.5,79.8333 608.5,115.167 608.5,150.5C 607.502,115.004 607.168,79.3372 607.5,43.5C 632.5,43.5 657.5,43.5 682.5,43.5C 682.5,50.5 682.5,57.5 682.5,64.5C 664.5,64.5 646.5,64.5 628.5,64.5 Z"/></g>
<g><path style="opacity:1" fill="#f1311f" d="M 369.5,43.5 C 369.5,50.1667 369.5,56.8333 369.5,63.5C 352.991,63.1702 336.658,63.5036 320.5,64.5C 312.421,65.6376 308.921,70.3043 310,78.5C 311.717,83.5513 315.217,86.3846 320.5,87C 330.5,87.3333 340.5,87.6667 350.5,88C 368.012,93.8419 375.845,106.009 374,124.5C 370.822,139.512 361.655,148.178 346.5,150.5C 329.5,150.5 312.5,150.5 295.5,150.5C 295.5,143.833 295.5,137.167 295.5,130.5C 312.342,130.83 329.008,130.497 345.5,129.5C 349.02,128.817 351.52,126.817 353,123.5C 355.166,116.001 352.666,110.834 345.5,108C 334.833,107.667 324.167,107.333 313.5,107C 294.72,99.9489 286.887,86.4489 290,66.5C 293.745,56.421 300.578,49.2544 310.5,45C 330.112,43.5493 349.779,43.0493 369.5,43.5 Z"/></g>
<g><path style="opacity:1" fill="#f1311f" d="M 628.5,64.5 C 628.175,72.0191 628.508,79.3524 629.5,86.5C 639.653,87.4942 649.986,87.8276 660.5,87.5C 660.5,94.1667 660.5,100.833 660.5,107.5C 649.833,107.5 639.167,107.5 628.5,107.5C 628.5,121.833 628.5,136.167 628.5,150.5C 621.833,150.5 615.167,150.5 608.5,150.5C 608.5,115.167 608.5,79.8333 608.5,44.5C 632.833,44.5 657.167,44.5 681.5,44.5C 681.5,50.8333 681.5,57.1667 681.5,63.5C 663.659,63.1699 645.992,63.5033 628.5,64.5 Z"/></g>
<g><path style="opacity:0.756" fill="#191023" d="M 200.5,49.5 C 202.167,49.5 203.833,49.5 205.5,49.5C 203.804,60.9532 201.47,72.2866 198.5,83.5C 194.5,83.5 190.5,83.5 186.5,83.5C 186.662,81.4727 186.495,79.4727 186,77.5C 181.574,82.6603 177.241,82.6603 173,77.5C 172.55,79.519 171.717,81.3523 170.5,83C 166.514,83.4988 162.514,83.6655 158.5,83.5C 160.342,74.4853 163.675,65.9853 168.5,58C 169.5,57.3333 170.5,57.3333 171.5,58C 174.427,60.3824 177.261,62.8824 180,65.5C 187.306,60.6847 194.139,55.3514 200.5,49.5 Z"/></g>
<g><path style="opacity:1" fill="#f1f1ee" d="M 202.5,51.5 C 203.124,51.9169 203.457,52.5836 203.5,53.5C 201.333,62.1667 199.167,70.8333 197,79.5C 194.544,81.3213 191.711,81.988 188.5,81.5C 188.927,78.6239 189.594,75.7906 190.5,73C 190.167,72.5 189.833,72 189.5,71.5C 186.126,74.0446 182.626,76.3779 179,78.5C 176.719,77.2237 174.719,75.5571 173,73.5C 171.132,75.7561 169.632,78.2561 168.5,81C 165.773,81.8184 163.106,81.6517 160.5,80.5C 163.41,73.6813 166.577,67.0146 170,60.5C 173.13,62.628 175.963,65.128 178.5,68C 179.5,68.6667 180.5,68.6667 181.5,68C 188.569,62.4804 195.569,56.9804 202.5,51.5 Z"/></g>
<g><path style="opacity:1" fill="#89848b" d="M 95.5,60.5 C 95.666,65.8437 95.4994,71.1771 95,76.5C 94.2828,75.9558 93.7828,75.2891 93.5,74.5C 94.1667,69.8333 94.8333,65.1667 95.5,60.5 Z"/></g>
<g><path style="opacity:0.76" fill="#1f1729" d="M 417.5,65.5 C 442.478,63.7276 458.645,74.7276 466,98.5C 470.513,121.657 462.68,139.157 442.5,151C 416.139,159.894 396.639,152.061 384,127.5C 376.405,104.016 382.571,85.1831 402.5,71C 407.434,68.6369 412.434,66.8035 417.5,65.5 Z M 418.5,90.5 C 436.119,89.619 443.952,97.9524 442,115.5C 436.55,129.477 427.05,133.311 413.5,127C 404.367,117.805 403.2,107.639 410,96.5C 412.637,94.109 415.47,92.109 418.5,90.5 Z"/></g>
<g><path style="opacity:0.755" fill="#1f1729" d="M 712.5,65.5 C 739.489,64.0068 755.989,76.3401 762,102.5C 764.56,122.208 757.727,137.708 741.5,149C 717.272,160.152 697.438,154.986 682,133.5C 671.124,110.019 675.291,89.8524 694.5,73C 700.149,69.4023 706.149,66.9023 712.5,65.5 Z M 713.5,90.5 C 728.119,88.9527 736.452,95.4527 738.5,110C 736.545,125.636 727.878,131.969 712.5,129C 699.2,119.779 697.2,108.446 706.5,95C 708.898,93.4758 711.231,91.9758 713.5,90.5 Z"/></g>
<g><path style="opacity:0.764" fill="#1d1528" d="M 865.5,65.5 C 878.753,64.6393 890.253,68.6393 900,77.5C 902.128,74.3699 904.628,71.5366 907.5,69C 909.769,68.2419 911.936,68.4086 914,69.5C 914.958,97.8738 914.624,126.207 913,154.5C 902.832,177.752 885.166,187.419 860,183.5C 859.333,175.833 859.333,168.167 860,160.5C 865.751,159.69 871.584,159.19 877.5,159C 881.295,158.207 884.295,156.207 886.5,153C 867.023,158.174 850.523,153.341 837,138.5C 825.392,119.255 825.725,100.255 838,81.5C 845.381,72.8993 854.548,67.5659 865.5,65.5 Z M 866.5,90.5 C 880.838,89.5016 888.838,96.1682 890.5,110.5C 887.973,125.551 879.306,131.717 864.5,129C 853.798,122.228 850.631,112.728 855,100.5C 857.566,95.6447 861.399,92.3113 866.5,90.5 Z"/></g>
<g><path style="opacity:0.763" fill="#1e1528" d="M 1001.5,83.5 C 1001.5,84.5 1001.5,85.5 1001.5,86.5C 989.303,101.022 976.97,115.522 964.5,130C 972.494,130.335 978.494,127.001 982.5,120C 983.167,119.833 983.833,119.667 984.5,119.5C 990.087,123.582 995.254,128.248 1000,133.5C 1000.67,135.167 1000.67,136.833 1000,138.5C 986.13,153.843 969.296,158.343 949.5,152C 927.443,140.377 918.943,122.211 924,97.5C 930.475,77.0325 944.475,66.3658 966,65.5C 980.696,66.0671 992.529,72.0671 1001.5,83.5 Z M 960.5,90.5 C 962.857,90.3367 965.19,90.5034 967.5,91C 961,99.5 954.5,108 948,116.5C 945.549,104.407 949.716,95.7401 960.5,90.5 Z"/></g>
<g><path style="opacity:1" fill="#f8f8f5" d="M 413.5,68.5 C 432.629,64.9964 447.796,70.9964 459,86.5C 466.172,101.787 466.172,117.12 459,132.5C 452.542,142.813 443.375,149.313 431.5,152C 406.855,153.935 391.022,143.101 384,119.5C 380.928,94.7678 390.761,77.7678 413.5,68.5 Z M 418.5,90.5 C 415.47,92.109 412.637,94.109 410,96.5C 403.2,107.639 404.367,117.805 413.5,127C 427.05,133.311 436.55,129.477 442,115.5C 443.952,97.9524 436.119,89.619 418.5,90.5 Z"/></g>
<g><path style="opacity:1" fill="#f8f9f6" d="M 708.5,68.5 C 726.34,65.8328 741.173,71.1662 753,84.5C 761.631,101.207 761.631,117.874 753,134.5C 737.278,153.611 718.444,157.444 696.5,146C 678.778,130.372 674.278,111.538 683,89.5C 689.018,79.2995 697.518,72.2995 708.5,68.5 Z M 713.5,90.5 C 711.231,91.9758 708.898,93.4758 706.5,95C 697.2,108.446 699.2,119.779 712.5,129C 727.878,131.969 736.545,125.636 738.5,110C 736.452,95.4527 728.119,88.9527 713.5,90.5 Z"/></g>
<g><path style="opacity:0.755" fill="#191023" d="M 771.5,68.5 C 773.857,68.3367 776.19,68.5034 778.5,69C 780.34,71.6687 782.34,74.1687 784.5,76.5C 790.519,72.3261 797.186,69.8261 804.5,69C 812.413,68.1859 820.246,68.3526 828,69.5C 828.667,76.8333 828.667,84.1667 828,91.5C 819.863,92.1587 811.696,92.992 803.5,94C 798.948,95.5881 796.115,98.7548 795,103.5C 794.826,120.074 794.326,136.574 793.5,153C 785.92,153.813 778.42,153.647 771,152.5C 770.176,124.428 770.343,96.428 771.5,68.5 Z"/></g>
<g><path style="opacity:1" fill="#fafaf7" d="M 908.5,71.5 C 909.5,71.5 910.5,71.5 911.5,71.5C 911.5,97.1667 911.5,122.833 911.5,148.5C 907.19,167.808 895.19,178.808 875.5,181.5C 871.167,181.5 866.833,181.5 862.5,181.5C 862.5,175.167 862.5,168.833 862.5,162.5C 865.167,162.5 867.833,162.5 870.5,162.5C 881.88,162.751 888.713,157.418 891,146.5C 881.275,152.647 870.775,154.147 859.5,151C 840.101,144.053 830.767,130.219 831.5,109.5C 831.501,90.6595 840.168,77.4928 857.5,70C 869.491,66.9384 880.825,68.2717 891.5,74C 894.333,76.1667 897.167,78.3333 900,80.5C 902.849,77.4257 905.683,74.4257 908.5,71.5 Z M 866.5,90.5 C 861.399,92.3113 857.566,95.6447 855,100.5C 850.631,112.728 853.798,122.228 864.5,129C 879.306,131.717 887.973,125.551 890.5,110.5C 888.838,96.1682 880.838,89.5016 866.5,90.5 Z"/></g>
<g><path style="opacity:1" fill="#f8f9f5" d="M 954.5,68.5 C 972.838,64.905 987.505,70.405 998.5,85C 986.347,99.8221 974.18,114.655 962,129.5C 961.517,130.448 961.351,131.448 961.5,132.5C 971.288,133.44 978.955,129.774 984.5,121.5C 989.5,125.833 994.167,130.5 998.5,135.5C 990.393,146.655 979.393,152.322 965.5,152.5C 945.209,151.388 932.043,141.055 926,121.5C 921.44,95.9378 930.94,78.2711 954.5,68.5 Z M 960.5,90.5 C 949.716,95.7401 945.549,104.407 948,116.5C 954.5,108 961,99.5 967.5,91C 965.19,90.5034 962.857,90.3367 960.5,90.5 Z"/></g>
<g><path style="opacity:1" fill="#65606a" d="M 481.5,70.5 C 478.713,71.4767 475.713,71.81 472.5,71.5C 472.5,77.8333 472.5,84.1667 472.5,90.5C 471.509,84.021 471.176,77.3543 471.5,70.5C 474.833,70.5 478.167,70.5 481.5,70.5 Z"/></g>
<g><path style="opacity:1" fill="#5e5863" d="M 502.5,70.5 C 510.833,70.5 519.167,70.5 527.5,70.5C 527.824,77.3543 527.491,84.021 526.5,90.5C 526.5,84.1667 526.5,77.8333 526.5,71.5C 518.316,71.8257 510.316,71.4924 502.5,70.5 Z"/></g>
<g><path style="opacity:1" fill="#5c5961" d="M 562.5,70.5 C 572.833,70.5 583.167,70.5 593.5,70.5C 593.824,77.3543 593.491,84.021 592.5,90.5C 592.5,84.1667 592.5,77.8333 592.5,71.5C 582.319,71.8274 572.319,71.494 562.5,70.5 Z"/></g>
<g><path style="opacity:1" fill="#64606a" d="M 541.5,70.5 C 538.713,71.4767 535.713,71.81 532.5,71.5C 532.5,77.8333 532.5,84.1667 532.5,90.5C 531.509,84.021 531.176,77.3543 531.5,70.5C 534.833,70.5 538.167,70.5 541.5,70.5 Z"/></g>
<g><path style="opacity:1" fill="#adacae" d="M 777.5,71.5 C 776.167,71.5 774.833,71.5 773.5,71.5C 773.5,97.8333 773.5,124.167 773.5,150.5C 773.167,150.5 772.833,150.5 772.5,150.5C 772.5,123.833 772.5,97.1667 772.5,70.5C 774.415,70.2155 776.081,70.5489 777.5,71.5 Z"/></g>
<g><path style="opacity:1" fill="#fcfdf9" d="M 777.5,71.5 C 779.448,74.6215 781.615,77.6215 784,80.5C 790.127,75.0674 797.293,72.0674 805.5,71.5C 812.167,71.5 818.833,71.5 825.5,71.5C 825.5,77.8333 825.5,84.1667 825.5,90.5C 818.159,90.3337 810.826,90.5003 803.5,91C 798.259,93.4062 794.592,97.2395 792.5,102.5C 791.504,118.325 791.17,134.325 791.5,150.5C 785.5,150.5 779.5,150.5 773.5,150.5C 773.5,124.167 773.5,97.8333 773.5,71.5C 774.833,71.5 776.167,71.5 777.5,71.5 Z"/></g>
<g><path style="opacity:1" fill="#625c67" d="M 805.5,71.5 C 812.313,70.5088 819.313,70.1755 826.5,70.5C 826.824,77.3543 826.491,84.021 825.5,90.5C 825.5,84.1667 825.5,77.8333 825.5,71.5C 818.833,71.5 812.167,71.5 805.5,71.5 Z"/></g>
<g><path style="opacity:1" fill="#aeabb0" d="M 908.5,71.5 C 909.568,70.5655 910.901,70.2322 912.5,70.5C 912.831,96.672 912.498,122.672 911.5,148.5C 911.5,122.833 911.5,97.1667 911.5,71.5C 910.5,71.5 909.5,71.5 908.5,71.5 Z"/></g>
<g><path style="opacity:0.76" fill="#1e1628" d="M 64.5,86.5 C 118.168,86.3333 171.834,86.5 225.5,87C 226,87.5 226.5,88 227,88.5C 227.667,96.5 227.667,104.5 227,112.5C 223.243,115.936 218.743,117.436 213.5,117C 196.372,121.075 187.039,131.908 185.5,149.5C 186.161,160.826 190.994,169.826 200,176.5C 200.684,177.784 200.517,178.951 199.5,180C 160.833,180.667 122.167,180.667 83.5,180C 82.9781,179.439 82.6448,178.772 82.5,178C 88.5718,161.363 82.5718,152.696 64.5,152C 64,151.5 63.5,151 63,150.5C 62.3333,129.833 62.3333,109.167 63,88.5C 63.7172,87.9558 64.2172,87.2891 64.5,86.5 Z"/></g>
<g><path style="opacity:1" fill="#501822" d="M 629.5,86.5 C 640.167,86.5 650.833,86.5 661.5,86.5C 661.825,93.6866 661.491,100.687 660.5,107.5C 660.5,100.833 660.5,94.1667 660.5,87.5C 649.986,87.8276 639.653,87.4942 629.5,86.5 Z"/></g>
<g><path style="opacity:1" fill="#c0c0c1" d="M 65.5,89.5 C 118.332,88.3349 171.332,88.1682 224.5,89C 225.827,96.5985 225.827,104.098 224.5,111.5C 224.813,104.245 224.48,97.0787 223.5,90C 170.834,89.5 118.168,89.3333 65.5,89.5 Z"/></g>
<g><path style="opacity:0.769" fill="#1f1729" d="M 419.5,87.5 C 438.282,88.1197 446.449,97.7863 444,116.5C 442.167,125 437,130.167 428.5,132C 416.677,133.5 408.51,128.667 404,117.5C 400.519,102.789 405.686,92.7888 419.5,87.5 Z M 418.5,90.5 C 415.47,92.109 412.637,94.109 410,96.5C 403.2,107.639 404.367,117.805 413.5,127C 427.05,133.311 436.55,129.477 442,115.5C 443.952,97.9524 436.119,89.619 418.5,90.5 Z"/></g>
<g><path style="opacity:0.77" fill="#21192b" d="M 714.5,87.5 C 727.389,86.5517 735.889,92.2183 740,104.5C 741.605,123.893 732.771,133.06 713.5,132C 699.373,124.576 695.207,113.409 701,98.5C 704.336,93.2685 708.836,89.6018 714.5,87.5 Z M 713.5,90.5 C 711.231,91.9758 708.898,93.4758 706.5,95C 697.2,108.446 699.2,119.779 712.5,129C 727.878,131.969 736.545,125.636 738.5,110C 736.452,95.4527 728.119,88.9527 713.5,90.5 Z"/></g>
<g><path style="opacity:0.764" fill="#221a2c" d="M 865.5,87.5 C 878.14,86.4436 886.973,91.7769 892,103.5C 894.152,123.346 885.318,132.846 865.5,132C 851.89,125.526 847.39,115.026 852,100.5C 855.076,94.5887 859.576,90.2554 865.5,87.5 Z M 866.5,90.5 C 861.399,92.3113 857.566,95.6447 855,100.5C 850.631,112.728 853.798,122.228 864.5,129C 879.306,131.717 887.973,125.551 890.5,110.5C 888.838,96.1682 880.838,89.5016 866.5,90.5 Z"/></g>
<g><path style="opacity:0.772" fill="#241c2e" d="M 960.5,87.5 C 963.85,87.335 967.183,87.5017 970.5,88C 970.957,88.414 971.291,88.914 971.5,89.5C 963.731,100.053 955.731,110.386 947.5,120.5C 941.467,105.548 945.801,94.5481 960.5,87.5 Z M 960.5,90.5 C 949.716,95.7401 945.549,104.407 948,116.5C 954.5,108 961,99.5 967.5,91C 965.19,90.5034 962.857,90.3367 960.5,90.5 Z"/></g>
<g><path style="opacity:1" fill="#fdfefa" d="M 65.5,89.5 C 118.168,89.3333 170.834,89.5 223.5,90C 224.48,97.0787 224.813,104.245 224.5,111.5C 216.404,113.363 208.404,115.863 200.5,119C 182.653,131.577 178.487,147.743 188,167.5C 190.335,170.665 192.835,173.665 195.5,176.5C 159.167,177.833 122.833,177.833 86.5,176.5C 90.6751,159.478 83.8418,150.478 66,149.5C 65.5,129.503 65.3334,109.503 65.5,89.5 Z"/></g>
<g><path style="opacity:1" fill="#65606a" d="M 481.5,91.5 C 482.497,110.993 482.83,130.66 482.5,150.5C 488.833,150.5 495.167,150.5 501.5,150.5C 495.021,151.491 488.354,151.824 481.5,151.5C 481.5,131.5 481.5,111.5 481.5,91.5 Z"/></g>
<g><path style="opacity:0.736" fill="#191023" d="M -0.5,110.5 C -0.5,108.5 -0.5,106.5 -0.5,104.5C 0.977392,102.193 2.97739,100.36 5.5,99C 23.5,98.3333 41.5,98.3333 59.5,99C 60.6564,113.425 60.8231,127.925 60,142.5C 34.7569,141.461 14.5903,130.795 -0.5,110.5 Z"/></g>
<g><path style="opacity:1" fill="#757179" d="M 6.5,101.5 C 23.6586,100.503 40.992,100.17 58.5,100.5C 58.5,114.167 58.5,127.833 58.5,141.5C 56.5853,141.784 54.9187,141.451 53.5,140.5C 54.8333,140.5 56.1667,140.5 57.5,140.5C 57.5,127.5 57.5,114.5 57.5,101.5C 40.5,101.5 23.5,101.5 6.5,101.5 Z"/></g>
<g><path style="opacity:1" fill="#fafbf8" d="M 6.5,101.5 C 23.5,101.5 40.5,101.5 57.5,101.5C 57.5,114.5 57.5,127.5 57.5,140.5C 56.1667,140.5 54.8333,140.5 53.5,140.5C 32.8037,137.406 15.9704,127.74 3,111.5C 2.33333,108.833 2.33333,106.167 3,103.5C 3.81595,102.177 4.98261,101.511 6.5,101.5 Z"/></g>
<g><path style="opacity:1" fill="#848088" d="M 792.5,102.5 C 792.5,118.833 792.5,135.167 792.5,151.5C 785.646,151.824 778.979,151.491 772.5,150.5C 772.833,150.5 773.167,150.5 773.5,150.5C 779.5,150.5 785.5,150.5 791.5,150.5C 791.17,134.325 791.504,118.325 792.5,102.5 Z"/></g>
<g><path style="opacity:1" fill="#731f23" d="M 345.5,129.5 C 329.008,130.497 312.342,130.83 295.5,130.5C 295.5,137.167 295.5,143.833 295.5,150.5C 312.5,150.5 329.5,150.5 346.5,150.5C 329.341,151.497 312.008,151.83 294.5,151.5C 294.5,144.167 294.5,136.833 294.5,129.5C 311.5,129.5 328.5,129.5 345.5,129.5 Z"/></g>
<g><path style="opacity:1" fill="#625e68" d="M 592.5,131.5 C 593.491,137.979 593.824,144.646 593.5,151.5C 586.978,151.823 580.645,151.49 574.5,150.5C 580.5,150.5 586.5,150.5 592.5,150.5C 592.5,144.167 592.5,137.833 592.5,131.5 Z"/></g>
<g><path style="opacity:1" fill="#7c7880" d="M 870.5,162.5 C 867.833,162.5 865.167,162.5 862.5,162.5C 862.5,168.833 862.5,175.167 862.5,181.5C 866.833,181.5 871.167,181.5 875.5,181.5C 871.03,182.486 866.363,182.819 861.5,182.5C 861.5,175.5 861.5,168.5 861.5,161.5C 864.713,161.19 867.713,161.523 870.5,162.5 Z"/></g>
<g><path style="opacity:1" fill="#7a767e" d="M 86.5,176.5 C 122.833,177.833 159.167,177.833 195.5,176.5C 196.289,176.783 196.956,177.283 197.5,178C 159.833,178.667 122.167,178.667 84.5,178C 85.0442,177.283 85.7109,176.783 86.5,176.5 Z"/></g>
<g><path style="opacity:0.691" fill="#2a2234" d="M 224.5,213.5 C 171.5,213.5 118.5,213.5 65.5,213.5C 64.8783,212.373 64.045,211.373 63,210.5C 62.3333,202.167 62.3333,193.833 63,185.5C 63.8333,184.667 64.6667,183.833 65.5,183C 118.5,182.333 171.5,182.333 224.5,183C 225.333,183.833 226.167,184.667 227,185.5C 227.667,193.833 227.667,202.167 227,210.5C 225.955,211.373 225.122,212.373 224.5,213.5 Z"/></g>
<g><path style="opacity:1" fill="#fcfdf9" d="M 65.5,185.5 C 118.501,185.333 171.501,185.5 224.5,186C 225.647,193.754 225.814,201.587 225,209.5C 171.904,210.664 118.737,210.831 65.5,210C 64.1811,201.833 64.1811,193.667 65.5,185.5 Z"/></g>
</svg>
